<?xml version="1.0" encoding="utf-8"?>
<!-- Generator: Adobe Illustrator 15.1.0, SVG Export Plug-In . SVG Version: 6.00 Build 0)  -->
<!DOCTYPE svg PUBLIC "-//W3C//DTD SVG 1.1//EN" "http://www.w3.org/Graphics/SVG/1.1/DTD/svg11.dtd">
<svg version="1.1" id="Layer_1" xmlns="http://www.w3.org/2000/svg" xmlns:xlink="http://www.w3.org/1999/xlink" x="0px" y="0px"
	 width="100px" height="100px" viewBox="0 0 100 100" enable-background="new 0 0 100 100" xml:space="preserve">
<circle fill="#222222" cx="50.001" cy="19.611" r="13.565"/>
<path fill="#222222" d="M99.611,35.648l-3.158-17.81c-1.268-7.997-11.823-6.349-10.576,1.646l3.195,16.394h-2.678
	c-0.731-3.209-3.61-5.588-7.035-5.588c-3.405,0-6.282,2.38-6.998,5.588h-4.836l-35.05,0.115h-4.84
	c-0.713-3.208-3.59-5.584-7.014-5.584c-3.409,0-6.285,2.376-6.999,5.584h-2.694l3.191-16.392c1.245-8-9.311-9.645-10.575-1.647
	L0.386,35.761c0,0-0.764,4.672,1.763,7.732c2.526,3.042,7.464,3.229,7.464,3.229l21.281-0.035l0.068,8.016L30.958,87.25h38.084
	l-0.005-32.664l0.066-8.015l21.281,0.034c0,0,4.92-0.182,7.469-3.226C100.38,40.32,99.613,35.649,99.611,35.648z"/>
</svg>
