<?xml version="1.0" encoding="utf-8"?>
<!-- Generator: Adobe Illustrator 15.1.0, SVG Export Plug-In . SVG Version: 6.00 Build 0)  -->
<!DOCTYPE svg PUBLIC "-//W3C//DTD SVG 1.1//EN" "http://www.w3.org/Graphics/SVG/1.1/DTD/svg11.dtd">
<svg version="1.1" id="Layer_1" xmlns="http://www.w3.org/2000/svg" xmlns:xlink="http://www.w3.org/1999/xlink" x="0px" y="0px"
	 width="100px" height="100px" viewBox="0 0 100 100" enable-background="new 0 0 100 100" xml:space="preserve">
<g id="Isolation_Mode">
	<path d="M86.9,41.098c1.547-11.713-3.205-25.748-17.238-32.045C58.566,4.073,38.98,4.081,28.65,13.498
		c-9.01,8.215-11.041,19.874-11.041,19.874s-0.93,4.332-0.93,5.77c0,1.375,1.548,1.916,1.371,2.622s-1.911,2.728-3.236,4.936
		c-1.324,2.209-4.711,7.117-4.711,8.443c0,1.323,0.793,1.813,2.383,2.344c1.59,0.529,2.827,0.971,3.092,1.59
		c0.264,0.617-0.757,2.384-0.812,3.643c-0.047,1.074,0.346,1.194,1.151,1.507c0.998,0.389,2.53,0.438,2.53,0.438
		s-3.413,0.646-3.074,2.043c0.351,1.45,2.407,1.745,2.59,2.88c0.091,0.573-1.738,3.509-1.498,6.366
		c0.314,3.729,3.847,5.398,9.447,4.499c5.338-0.856,7.849-1.654,8.536,1.291c0.431,1.854,0.386,4.979,1.18,8.514
		c0.033,0.142,0.067,0.293,0.099,0.442h40.968c-1.753-3.194-4.056-8.319-4.056-14.841c0-4.474,0.444-11.116,3.653-14.648
		C80.315,56.78,85.657,50.509,86.9,41.098z M69.985,50.381c0,0-0.536,5.859-4.838,6.612c-3.684,0.645-6.128-2.902-6.128-2.902
		l-1.211,5.723H55.23c0,0-2.338-8.626-3.951-10.078s-4.113-1.855-4.113-1.855s-3.386-0.242-5.564-2.417
		c-2.177-2.179-0.161-4.84-0.161-4.84s-2.742,0.162-8.306-1.047c-5.563-1.21-3.87-4.758-3.87-4.758s-1.452,0.243-2.661-1.29
		c-0.859-1.089-1.485-3.752,0.081-6.854c1.404-2.777,3.868-3.742,3.868-3.742s-0.912-1.158,1.012-2.776
		c1.005-0.845,2.779-0.82,2.779-0.82s0.434-1.862,3.105-3.069c3.026-1.367,5.039-0.236,5.039-0.236s0.809-1.771,3.147-2.578
		c2.339-0.806,4.674,0.562,4.674,0.562s1.582-1.431,4.486-1.431c2.901,0,3.981,1.512,3.981,1.512s1.749-0.898,3.871-0.162
		c2.004,0.697,2.584,2.64,2.584,2.64s1.448-1.027,3.462-0.221c2.018,0.807,2.824,2.984,2.824,2.984s1.39-0.204,2.771,1.024
		c1.026,0.912,0.694,2.604,0.694,2.604s1.711,0.568,2.735,2.615c0.951,1.905-0.396,3.514-0.396,3.514s2.821,2.096,3.227,7.579
		c0.491,6.689-3.79,7.983-3.79,7.983s0.847,2.123-0.645,4.435C74.085,52.236,69.985,50.381,69.985,50.381z"/>
</g>
</svg>
